<?xml version="1.0" standalone="no"?>
<!DOCTYPE svg PUBLIC "-//W3C//DTD SVG 20010904//EN"
 "http://www.w3.org/TR/2001/REC-SVG-20010904/DTD/svg10.dtd">
<svg version="1.0" xmlns="http://www.w3.org/2000/svg"
 width="300.000000pt" height="300.000000pt" viewBox="0 0 300.000000 300.000000"
 preserveAspectRatio="xMidYMid meet">
<metadata>
Created by potrace 1.10, written by Peter Selinger 2001-2011
</metadata>
<g transform="translate(0.000000,300.000000) scale(0.100000,-0.100000)"
fill="#000000" stroke="none">
<path d="M1050 2716 c0 -42 5 -69 14 -79 10 -9 17 -51 22 -130 l7 -116 -39 -3
c-24 -2 -39 -8 -38 -15 1 -7 2 -40 3 -73 1 -55 3 -61 26 -70 20 -8 25 -16 25
-47 0 -21 7 -175 15 -343 8 -168 15 -333 15 -367 l0 -63 -211 0 -212 0 8 -81
c3 -45 9 -88 12 -95 4 -11 -13 -14 -85 -14 -49 0 -103 -3 -120 -6 -27 -6 -31
-3 -42 30 -14 45 -19 47 -61 36 -19 -5 -53 -14 -75 -19 l-42 -11 3 -73 c3 -67
9 -83 88 -247 l85 -175 -55 -5 c-38 -4 -59 -11 -69 -25 -20 -27 -17 -72 6 -95
20 -20 33 -20 914 -20 l895 0 20 26 c26 33 26 54 1 87 -18 22 -30 27 -81 29
l-60 3 80 53 c104 69 236 193 317 301 121 160 221 398 243 578 5 42 15 79 22
83 10 7 9 18 -1 57 -7 26 -16 51 -19 55 -6 7 -670 -184 -694 -199 -5 -3 -6 17
-3 48 9 77 46 528 46 556 0 15 6 23 16 23 14 0 16 11 12 80 -3 44 -7 82 -10
85 -3 3 -152 -8 -331 -25 -179 -16 -333 -30 -342 -30 -15 0 -16 10 -10 103 4
56 11 104 15 107 4 3 9 37 11 75 l4 70 -162 3 -163 2 0 -64z m292 -11 l-4 -46
-127 3 -126 3 -3 43 -3 42 133 0 133 0 -3 -45z m-28 -182 c-4 -60 -7 -109 -8
-109 -1 -1 -43 -5 -93 -8 l-93 -8 0 70 c0 38 -3 90 -6 116 l-7 46 107 0 106 0
-6 -107z m691 -128 c4 -31 6 -57 4 -59 -11 -8 -927 -87 -941 -81 -14 5 -18 19
-18 56 0 40 3 49 18 50 19 0 913 86 924 88 4 0 10 -24 13 -54z m-25 -108 c0
-8 -11 -144 -25 -303 -14 -159 -25 -294 -25 -300 0 -6 -26 -18 -58 -27 -51
-14 -60 -21 -76 -54 -19 -40 -97 -152 -106 -153 -3 0 -2 42 1 93 4 50 10 171
14 267 l7 175 -30 46 c-76 118 -241 116 -320 -4 l-27 -41 4 -347 c3 -331 2
-347 -15 -352 -26 -8 -176 -28 -180 -24 -2 1 -10 167 -18 367 -9 201 -19 415
-22 476 l-7 111 129 13 c71 6 255 24 409 40 340 33 345 34 345 17z m-403 -208
c35 -13 71 -46 90 -83 13 -25 13 -62 2 -300 -14 -308 -5 -281 -111 -336 -55
-29 -174 -67 -182 -59 -4 3 -10 603 -7 666 1 12 16 39 33 59 51 58 113 77 175
53z m1074 -260 l7 -26 -207 -58 c-113 -32 -273 -77 -356 -100 -82 -24 -169
-48 -191 -54 -37 -10 -47 -19 -85 -84 -87 -147 -196 -226 -370 -266 -141 -33
-419 -61 -804 -81 -335 -17 -340 -17 -343 8 -3 21 0 22 80 22 99 0 527 26 683
41 437 42 610 118 734 326 l41 68 387 117 c214 64 394 116 402 115 8 -1 18
-14 22 -28z m-27 -153 c-36 -225 -158 -469 -320 -645 -68 -73 -187 -171 -280
-229 l-51 -32 -747 0 -747 0 -82 167 c-44 93 -83 171 -85 176 -2 4 36 7 85 7
208 0 720 37 923 66 280 40 396 106 515 289 l52 80 264 74 c145 41 272 76 282
79 29 8 19 -15 -12 -28 -63 -26 -58 -122 7 -149 43 -18 82 -3 106 41 17 30 18
39 7 65 -7 17 -23 36 -37 44 -39 20 -25 41 41 60 98 29 94 32 79 -65z m-119
-40 c19 -28 9 -58 -26 -76 -25 -14 -63 7 -72 39 -14 54 67 85 98 37z m-1395
-305 c0 -33 -3 -62 -7 -64 -11 -7 -372 -32 -377 -26 -2 2 -6 37 -10 77 l-6 72
200 0 200 0 0 -59z m-690 -75 c0 -2 3 -11 6 -20 5 -14 -3 -16 -55 -16 -69 0
-80 13 -23 28 41 11 72 14 72 8z m1665 -533 c40 -9 58 -34 38 -54 -6 -6 -359
-10 -877 -11 -787 0 -869 1 -884 16 -21 21 -6 37 51 51 52 12 1613 10 1672 -2z"/>
</g>
</svg>
